# xmcd CD database file
# Copyright (C) 1997 Ti Kan
# 
# Track frame offsets:
#     150
#     14010
#     26885
#     40922
#     54210
#     68847
#     82135
#     95810
#     108935
#     123210
#     137035
#     152885
#     181185
#     196710
#     210535
# 
# Disc length: 3120 seconds
# 
# Revision: 1
# Processed by: cddbd v1.4b41PL1 Copyright (c) Steve Scherf et al.
# Submitted via: DiscPlay 4.0.4
# 
DISCID=cc0c2e0f
DTITLE=Billie Holiday - Legends
DYEAR=1900
DGENRE=
TTITLE0=My Man
TTITLE1=Them There Eyes
TTITLE2=The Man I Love
TTITLE3=God Bless The Child
TTITLE4=Solitude
TTITLE5=I Must Have That Man
TTITLE6=All Of Me
TTITLE7=You Go To My Head
TTITLE8=Until The Real Thing Comes Along
TTITLE9=Detour Ahead
TTITLE10=Good Morning Heartache
TTITLE11=Ill Wind
TTITLE12=I'm A Fool To Want You
TTITLE13=Strange Fruit
TTITLE14=Don't Explain (performed by Etta James)
EXTD=
EXTT0=
EXTT1=
EXTT2=
EXTT3=
EXTT4=
EXTT5=
EXTT6=
EXTT7=
EXTT8=
EXTT9=
EXTT10=
EXTT11=
EXTT12=
EXTT13=
EXTT14=
PLAYORDER=
